{"title":"The Level 2008 DVDrip English Klam","uid":6433596,"size":911221474,"categoryP":"video","categoryS":"movies","magnet":"?xt=urn:btih:49adbe53e948320c6c3f0fc0e40095ebceeb16e4&amp;dn=The+Level+2008+DVDrip+English+Klam&amp;tr=udp%3A%2F%2Ftracker.openbittorrent.com%3A80&amp;tr=udp%3A%2F%2Fopen.demonii.com%3A1337&amp;tr=udp%3A%2F%2Ftracker.coppersurfer.tk%3A6969&amp;tr=udp%3A%2F%2Fexodus.desync.com%3A6969","seeders":1,"leechers":0,"uploader":"Klambake","files":-1,"time":1306750604,"description":"With: Paris Campbell, Robert Haley and Chris Ferry\n\n'The Level' volgt Eddie, een glad bendelid, als hij en zijn schietgrage vriend Rocky hun baas Al zoeken. Tijdens het volgen van zijn spoor ondervragen ze iedereen die dicht bij hem stond, o.a. zijn maitresse en zijn zoon. Na diverse verhoren, vuurgevechten met rivaliserende bendes en een explosie die Al onmogelijk overleefd kan hebben, zijn de dingen duidelijk niet zoals ze lijken.\n\nTwo bodyguards set out to find their boss's killer before his son starts a mob war. \n\nGeneral:\n\nComplete name                    : The Level\\The Level.avi\nFormat                           : AVI\nFormat/Info                      : Audio Video Interleave\nFile size                        : 869 MiB\nDuration                         : 1h 27mn\nOverall bit rate                 : 1 393 Kbps\n\nVideo:\n\nFormat                           : MPEG-4 Visual\nFormat profile                   : Simple@L3\nFormat settings, BVOP            : No\nFormat settings, QPel            : No\nFormat settings, GMC             : No warppoints\nFormat settings, Matrix          : Default (H.263)\nCodec ID                         : XVID\nCodec ID/Hint                    : XviD\nDuration                         : 1h 27mn\nBit rate                         : 1 190 Kbps\nWidth                            : 720 pixels\nHeight                           : 304 pixels\nDisplay aspect ratio             : 2.35:1\nFrame rate                       : 25.000 fps\nColor space                      : YUV\nChroma subsampling               : 4:2:0\nBit depth                        : 8 bits\nScan type                        : Progressive\nBits/(Pixel*Frame)               : 0.217\nStream size                      : 742 MiB (85%)\nWriting library                  : XviD 1.1.2 (UTC 2006-11-01)\n\nAudio:\n\nFormat                           : AC-3\nFormat/Info                      : Audio Coding 3\nMode extension                   : CM (complete main)\nCodec ID                         : 2000\nDuration                         : 1h 27mn\nBit rate mode                    : Constant\nBit rate                         : 192 Kbps\nChannel(s)                       : 2 channels\nChannel positions                : Front: L R\nSampling rate                    : 48.0 KHz\nBit depth                        : 16 bits\nStream size                      : 120 MiB (14%)\nAlignment                        : Aligned on interleaves\nInterleave, duration             : 32 ms (0.80 video frame)\nInterleave, preload duration     : 32 ms\n\n","torrent":{"xt":"urn:btih:49adbe53e948320c6c3f0fc0e40095ebceeb16e4","amp;dn":"The+Level+2008+DVDrip+English+Klam","amp;tr":["udp%3A%2F%2Ftracker.openbittorrent.com%3A80","udp%3A%2F%2Fopen.demonii.com%3A1337","udp%3A%2F%2Ftracker.coppersurfer.tk%3A6969","udp%3A%2F%2Fexodus.desync.com%3A6969"],"infoHash":"49adbe53e948320c6c3f0fc0e40095ebceeb16e4","infoHashBuffer":{"type":"Buffer","data":[73,173,190,83,233,72,50,12,108,63,15,192,228,0,149,235,206,235,22,228]},"announce":[],"urlList":[]}}